<svg width="1653" height="993" xmlns="http://www.w3.org/2000/svg" xmlns:xlink="http://www.w3.org/1999/xlink" overflow="hidden"><defs><clipPath id="clip0"><rect x="962" y="106" width="1653" height="993"/></clipPath><clipPath id="clip1"><rect x="963" y="107" width="1650" height="990"/></clipPath><clipPath id="clip2"><rect x="963" y="107" width="1650" height="990"/></clipPath><clipPath id="clip3"><rect x="1073" y="157" width="1493" height="732"/></clipPath><clipPath id="clip4"><rect x="1073" y="157" width="1493" height="732"/></clipPath><clipPath id="clip5"><rect x="963" y="107" width="1650" height="990"/></clipPath><clipPath id="clip6"><rect x="963" y="107" width="1650" height="990"/></clipPath><clipPath id="clip7"><rect x="963" y="107" width="1650" height="990"/></clipPath><clipPath id="clip8"><rect x="963" y="107" width="1650" height="990"/></clipPath><clipPath id="clip9"><rect x="963" y="107" width="1650" height="990"/></clipPath><clipPath id="clip10"><rect x="963" y="107" width="1650" height="990"/></clipPath><clipPath id="clip11"><rect x="963" y="107" width="1650" height="990"/></clipPath><clipPath id="clip12"><rect x="963" y="107" width="1650" height="990"/></clipPath><clipPath id="clip13"><rect x="963" y="107" width="1650" height="990"/></clipPath><clipPath id="clip14"><rect x="963" y="107" width="1650" height="990"/></clipPath><clipPath id="clip15"><rect x="963" y="107" width="1650" height="990"/></clipPath><clipPath id="clip16"><rect x="963" y="107" width="1650" height="990"/></clipPath><clipPath id="clip17"><rect x="963" y="107" width="1650" height="990"/></clipPath><clipPath id="clip18"><rect x="963" y="107" width="1650" height="990"/></clipPath><clipPath id="clip19"><rect x="963" y="107" width="1650" height="990"/></clipPath><clipPath id="clip20"><rect x="963" y="107" width="1650" height="990"/></clipPath><clipPath id="clip21"><rect x="963" y="107" width="1650" height="990"/></clipPath><clipPath id="clip22"><rect x="963" y="107" width="1650" height="990"/></clipPath><clipPath id="clip23"><rect x="963" y="107" width="1650" height="990"/></clipPath><clipPath id="clip24"><rect x="963" y="107" width="1650" height="990"/></clipPath><clipPath id="clip25"><rect x="963" y="107" width="1650" height="990"/></clipPath><clipPath id="clip26"><rect x="963" y="107" width="1650" height="990"/></clipPath></defs><g clip-path="url(#clip0)" transform="translate(-962 -106)"><rect x="963" y="107" width="1650" height="990" fill="#FFFFFF"/><g clip-path="url(#clip1)"><path d="M1073.5 813.527 2562.5 813.527M1073.5 740.524 2562.5 740.524M1073.5 667.522 2562.5 667.522M1073.5 594.52 2562.5 594.52M1073.5 522.517 2562.5 522.517M1073.5 449.515 2562.5 449.515M1073.5 376.513 2562.5 376.513M1073.5 303.51 2562.5 303.51M1073.5 230.508 2562.5 230.508M1073.5 157.5 2562.5 157.5" stroke="#D9D9D9" stroke-width="3.4375" stroke-linejoin="round" stroke-miterlimit="10" fill="none"/></g><g clip-path="url(#clip2)"><path d="M1073.5 886.5 2562.5 886.5" stroke="#D9D9D9" stroke-width="3.4375" stroke-linejoin="round" stroke-miterlimit="10" fill="none" fill-rule="evenodd"/></g><g clip-path="url(#clip3)"><path d="M1179 631.021 1392.05 558 1605.05 558 1818.06 631.021 2031.07 558 2243.07 631.021 2456 668" stroke="#4472C4" stroke-width="10.3125" stroke-linecap="round" stroke-linejoin="round" stroke-miterlimit="10" fill="none"/></g><g clip-path="url(#clip4)"><path d="M1179 194 1392.05 231.008 1605.05 267.009 1818.06 267.009 2031.07 376 2243.07 376 2456 340.011" stroke="#ED7D31" stroke-width="10.3125" stroke-linecap="round" stroke-linejoin="round" stroke-miterlimit="10" fill="none"/></g><g clip-path="url(#clip5)"><text fill="#595959" font-family="Calibri,Calibri_MSFontService,sans-serif" font-weight="400" font-size="41" transform="matrix(1 0 0 1 1013.89 898)">0</text></g><g clip-path="url(#clip6)"><text fill="#595959" font-family="Calibri,Calibri_MSFontService,sans-serif" font-weight="400" font-size="41" transform="matrix(1 0 0 1 1013.89 825)">2</text></g><g clip-path="url(#clip7)"><text fill="#595959" font-family="Calibri,Calibri_MSFontService,sans-serif" font-weight="400" font-size="41" transform="matrix(1 0 0 1 1013.89 752)">4</text></g><g clip-path="url(#clip8)"><text fill="#595959" font-family="Calibri,Calibri_MSFontService,sans-serif" font-weight="400" font-size="41" transform="matrix(1 0 0 1 1013.89 679)">6</text></g><g clip-path="url(#clip9)"><text fill="#595959" font-family="Calibri,Calibri_MSFontService,sans-serif" font-weight="400" font-size="41" transform="matrix(1 0 0 1 1013.89 606)">8</text></g><g clip-path="url(#clip10)"><text fill="#595959" font-family="Calibri,Calibri_MSFontService,sans-serif" font-weight="400" font-size="41" transform="matrix(1 0 0 1 992.986 534)">10</text></g><g clip-path="url(#clip11)"><text fill="#595959" font-family="Calibri,Calibri_MSFontService,sans-serif" font-weight="400" font-size="41" transform="matrix(1 0 0 1 992.986 461)">12</text></g><g clip-path="url(#clip12)"><text fill="#595959" font-family="Calibri,Calibri_MSFontService,sans-serif" font-weight="400" font-size="41" transform="matrix(1 0 0 1 992.986 388)">14</text></g><g clip-path="url(#clip13)"><text fill="#595959" font-family="Calibri,Calibri_MSFontService,sans-serif" font-weight="400" font-size="41" transform="matrix(1 0 0 1 992.986 315)">16</text></g><g clip-path="url(#clip14)"><text fill="#595959" font-family="Calibri,Calibri_MSFontService,sans-serif" font-weight="400" font-size="41" transform="matrix(1 0 0 1 992.986 242)">18</text></g><g clip-path="url(#clip15)"><text fill="#595959" font-family="Calibri,Calibri_MSFontService,sans-serif" font-weight="400" font-size="41" transform="matrix(1 0 0 1 992.986 169)">20</text></g><g clip-path="url(#clip16)"><text fill="#595959" font-family="Calibri,Calibri_MSFontService,sans-serif" font-weight="400" font-size="41" transform="matrix(1 0 0 1 1158.56 951)">22</text></g><g clip-path="url(#clip17)"><text fill="#595959" font-family="Calibri,Calibri_MSFontService,sans-serif" font-weight="400" font-size="41" transform="matrix(1 0 0 1 1371.38 951)">23</text></g><g clip-path="url(#clip18)"><text fill="#595959" font-family="Calibri,Calibri_MSFontService,sans-serif" font-weight="400" font-size="41" transform="matrix(1 0 0 1 1584.2 951)">24</text></g><g clip-path="url(#clip19)"><text fill="#595959" font-family="Calibri,Calibri_MSFontService,sans-serif" font-weight="400" font-size="41" transform="matrix(1 0 0 1 1797.02 951)">25</text></g><g clip-path="url(#clip20)"><text fill="#595959" font-family="Calibri,Calibri_MSFontService,sans-serif" font-weight="400" font-size="41" transform="matrix(1 0 0 1 2009.83 951)">26</text></g><g clip-path="url(#clip21)"><text fill="#595959" font-family="Calibri,Calibri_MSFontService,sans-serif" font-weight="400" font-size="41" transform="matrix(1 0 0 1 2222.65 951)">27</text></g><g clip-path="url(#clip22)"><text fill="#595959" font-family="Calibri,Calibri_MSFontService,sans-serif" font-weight="400" font-size="41" transform="matrix(1 0 0 1 2435.47 951)">28</text></g><g clip-path="url(#clip23)"><path d="M1597 1031 1685 1031" stroke="#4472C4" stroke-width="10.3125" stroke-linecap="round" stroke-linejoin="round" stroke-miterlimit="10" fill="none" fill-rule="evenodd"/></g><g clip-path="url(#clip24)"><text fill="#595959" font-family="Yu Gothic,Yu Gothic_MSFontService,sans-serif" font-weight="400" font-size="41" transform="matrix(1 0 0 1 1694.58 1043)">最低</text></g><g clip-path="url(#clip25)"><path d="M1815 1031 1903 1031" stroke="#ED7D31" stroke-width="10.3125" stroke-linecap="round" stroke-linejoin="round" stroke-miterlimit="10" fill="none" fill-rule="evenodd"/></g><g clip-path="url(#clip26)"><text fill="#595959" font-family="Yu Gothic,Yu Gothic_MSFontService,sans-serif" font-weight="400" font-size="41" transform="matrix(1 0 0 1 1912.75 1043)">最高</text></g><rect x="963.5" y="107.5" width="1650" height="990" stroke="#D9D9D9" stroke-width="3.4375" stroke-linejoin="round" stroke-miterlimit="10" fill="none"/></g></svg>